<!-- public/apple-icon.svg -->
<svg xmlns="http://www.w3.org/2000/svg" viewBox="0 0 24 24" width="18" height="18">
  <path d="M14.94,5.19A5.23,5.23,0,0,0,16,1.5a5.24,5.24,0,0,0-3.32,1.9A4.73,4.73,0,0,0,11.5,7,4.12,4.12,0,0,0,14.94,5.19Z" fill="#000"/>
  <path d="M20.34,17.57c-.44,1-1,2-1.73,3.2-.93,1.5-1.89,2.23-2.91,2.23a3.47,3.47,0,0,1-1.58-.39A3.94,3.94,0,0,0,12,22c-.62,0-1.25.22-1.94.45a3.32,3.32,0,0,1-1.35.31c-1.09,0-2.17-.8-3.19-2.39-2.2-3.48-2.46-7.71-1-10.19a4.94,4.94,0,0,1,4.07-2.3,5.59,5.59,0,0,1,1.82.39A4.61,4.61,0,0,0,12,8.54a4.58,4.58,0,0,0,1.53-.36,5.89,5.89,0,0,1,2.06-.45c1.34,0,2.74.71,3.64,1.94a4.45,4.45,0,0,0-2.08,3.67C17.15,15.21,18.45,16.27,20.34,17.57Z" fill="#000"/>
</svg>